mtllib materials.mtl
v 0.06293148 0.2454112 -0.08599479
v 0.06938797 0.2457929 -0.09016988
v 0.0890922 -0.5379938 -0.1313999
v 0.0826357 -0.5383756 -0.1272248
v 0.0728851 0.2462413 -0.09701981
v 0.09258926 -0.5375454 -0.1382498
v 0.07248574 0.2466357 -0.1047091
v 0.09218997 -0.5371511 -0.1459392
v 0.06829703 0.2468705 -0.1111775
v 0.08800119 -0.5369161 -0.1524076
v 0.06144118 0.2468832 -0.1146918
v 0.08114541 -0.5369036 -0.1559218
v 0.05375534 0.2466698 -0.1143102
v 0.07345957 -0.5371169 -0.1555403
v 0.04729885 0.2462878 -0.1101351
v 0.06700307 -0.5374988 -0.1513652
v 0.04380178 0.2458396 -0.1032852
v 0.06350595 -0.5379471 -0.1445152
v 0.04420108 0.2454453 -0.09559588
v 0.0639053 -0.5383415 -0.1368259
v 0.04838985 0.2452102 -0.0891275
v 0.06809402 -0.5385765 -0.1303575
v 0.05524564 0.2451978 -0.08561325
v 0.07494986 -0.538589 -0.1268433
v 0.05460554 0.1639605 -0.09767562
v 0.05502951 0.2404397 -0.09354078
v 0.04383194 0.2452192 -0.08606132
v -0.007044494 0.1472805 0.05082922
v -0.1048635 0.0594101 0.1704545
v -0.1152793 0.1175818 0.2368224
v -0.1914206 0.07542539 0.3440783
v 0.05276477 0.0464865 -0.1025432
vn 0.3080096 -0.04225356 0.9504445
vn 0.7422702 -0.01657847 0.6698956
vn 0.9776402 0.01353881 0.2098487
vn 0.9510521 0.04002838 -0.306427
vn 0.6696305 0.05579237 -0.7405959
vn 0.208782 0.05660685 -0.9763226
vn -0.3080097 0.04225356 -0.9504445
vn -0.7422704 0.01657846 -0.6698954
vn -0.9776402 -0.01353882 -0.2098486
vn -0.9510522 -0.04002838 0.306427
vn -0.6696306 -0.05579237 0.7405957
vn -0.2087817 -0.05660684 0.9763227
vn -0.02509712 0.9983047 0.05251446
vn 0.02509712 -0.9983047 -0.05251446
vn -0.5404192 0.04841048 -0.8400021
vn 0.834804 -0.3423947 0.4311244
vn 0.9242914 -0.0257129 0.3808206
vn -0.8881856 0.0882549 -0.4509297
vn 0.8069034 -0.5220572 0.2763391
vn -0.1032434 0.9484914 0.2995078
vn -0.5643789 0.043003 -0.8243951
vn -0.8659524 0.002553879 -0.50012
vn 0.8647936 -0.03430834 0.5009541
vn 0.6117069 0.5622494 0.5564984
vn 0.8220178 -0.3580365 0.442828
vn 0.8172531 0.2557494 0.5164202
usemtl mat22
f 4//1 3//1 2//1 1//1
f 3//2 6//2 5//2 2//2
f 6//3 8//3 7//3 5//3
f 8//4 10//4 9//4 7//4
f 10//5 12//5 11//5 9//5
f 12//6 14//6 13//6 11//6
f 14//7 16//7 15//7 13//7
f 16//8 18//8 17//8 15//8
f 18//9 20//9 19//9 17//9
f 22//11 24//11 23//11 21//11
f 24//12 4//12 1//12 23//12
usemtl mat21
f 20//10 22//10 21//10 19//10
f 1//13 2//13 5//13 7//13 9//13 11//13 13//13 15//13 17//13 19//13 21//13 23//13
f 24//14 22//14 20//14 18//14 16//14 14//14 12//14 10//14 8//14 6//14 3//14 4//14
usemtl mat10
f 27//15 26//15 25//15
f 30//16 29//16 28//16
f 26//17 28//17 25//17
f 29//18 31//18 27//18
f 28//19 29//19 25//19
f 31//20 30//20 26//20
f 25//21 32//21 27//21
f 27//22 32//22 29//22
f 29//23 32//23 25//23
f 26//24 27//24 31//24
f 30//25 31//25 29//25
f 26//26 30//26 28//26
